<svg width="12" height="12" viewBox="0 0 12 12" fill="none" xmlns="http://www.w3.org/2000/svg">
<path d="M4.71429 2.57143V4.71429H2.57143C1.38796 4.71429 0.428571 3.7549 0.428571 2.57143C0.428571 1.38796 1.38796 0.428571 2.57143 0.428571C3.7549 0.428571 4.71429 1.38796 4.71429 2.57143Z" stroke="#C4C4C4" stroke-width="0.857143"/>
<path d="M2.57143 7.28571H4.71429V9.42857C4.71429 10.612 3.7549 11.5714 2.57143 11.5714C1.38796 11.5714 0.428571 10.612 0.428571 9.42857C0.428571 8.2451 1.38796 7.28571 2.57143 7.28571Z" stroke="#C4C4C4" stroke-width="0.857143"/>
<path d="M7.28571 9.42857L7.28571 7.28571L9.42857 7.28571C10.612 7.28571 11.5714 8.2451 11.5714 9.42857C11.5714 10.612 10.612 11.5714 9.42857 11.5714C8.2451 11.5714 7.28571 10.612 7.28571 9.42857Z" stroke="#C4C4C4" stroke-width="0.857143"/>
<path d="M9.42857 4.71429H7.28571V2.57143C7.28571 1.38796 8.2451 0.428571 9.42857 0.428571C10.612 0.428571 11.5714 1.38796 11.5714 2.57143C11.5714 3.7549 10.612 4.71429 9.42857 4.71429Z" stroke="#C4C4C4" stroke-width="0.857143"/>
<rect x="4.7147" y="4.71428" width="2.57143" height="2.57143" stroke="#C4C4C4" stroke-width="0.857143"/>
</svg>
