<svg width="18" height="29" viewBox="0 0 18 29" fill="none" xmlns="http://www.w3.org/2000/svg">
<path d="M0 1.11801C0 0.50055 0.500551 0 1.11801 0V0C4.82278 0 7.82609 3.00331 7.82609 6.70807V21.8669C7.82609 25.5717 4.82278 28.575 1.11801 28.575V28.575C0.500551 28.575 0 28.0744 0 27.457V1.11801Z" fill="#C5C5C5"/>
<path d="M10.1738 7.24637C10.1738 3.24431 13.4181 0 17.4202 0V0C17.7404 0 17.9999 0.259545 17.9999 0.57971V6.14816C17.9999 10.1502 14.7556 13.3945 10.7535 13.3945V13.3945C10.4334 13.3945 10.1738 13.135 10.1738 12.8148V7.24637Z" fill="#C5C5C5"/>
<path d="M10.1738 15.7602C10.1738 15.44 10.4334 15.1805 10.7535 15.1805V15.1805C14.7556 15.1805 17.9999 18.4248 17.9999 22.4268V27.9953C17.9999 28.3155 17.7404 28.575 17.4202 28.575V28.575C13.4181 28.575 10.1738 25.3307 10.1738 21.3286V15.7602Z" fill="#C5C5C5"/>
</svg>
