<svg width="16" height="16" viewBox="0 0 16 16" fill="none" xmlns="http://www.w3.org/2000/svg">
<path d="M12.0004 6.66667C12.0004 6.48985 11.9302 6.32029 11.8052 6.19526C11.6801 6.07024 11.5106 6 11.3338 6H3.60709L5.14042 4.47333C5.26595 4.3478 5.33648 4.17753 5.33648 4C5.33648 3.82246 5.26595 3.6522 5.14042 3.52667C5.01488 3.40113 4.84462 3.3306 4.66709 3.3306C4.48955 3.3306 4.31929 3.40113 4.19375 3.52667L1.52709 6.19333C1.43458 6.28708 1.37192 6.40613 1.347 6.53546C1.32208 6.66478 1.33603 6.79859 1.38709 6.92C1.4371 7.04174 1.52203 7.14596 1.63118 7.21952C1.74032 7.29307 1.8688 7.33268 2.00042 7.33333H11.3338C11.5106 7.33333 11.6801 7.26309 11.8052 7.13807C11.9302 7.01305 12.0004 6.84348 12.0004 6.66667ZM14.6138 9.08C14.5637 8.95825 14.4788 8.85403 14.3697 8.78048C14.2605 8.70692 14.132 8.66732 14.0004 8.66667H4.66709C4.49027 8.66667 4.32071 8.7369 4.19568 8.86193C4.07066 8.98695 4.00042 9.15652 4.00042 9.33333C4.00042 9.51014 4.07066 9.67971 4.19568 9.80474C4.32071 9.92976 4.49027 10 4.66709 10H12.3938L10.8604 11.5267C10.7979 11.5886 10.7483 11.6624 10.7145 11.7436C10.6806 11.8249 10.6632 11.912 10.6632 12C10.6632 12.088 10.6806 12.1751 10.7145 12.2564C10.7483 12.3376 10.7979 12.4114 10.8604 12.4733C10.9224 12.5358 10.9961 12.5854 11.0774 12.6193C11.1586 12.6531 11.2457 12.6705 11.3338 12.6705C11.4218 12.6705 11.5089 12.6531 11.5901 12.6193C11.6714 12.5854 11.7451 12.5358 11.8071 12.4733L14.4738 9.80667C14.5663 9.71292 14.6289 9.59387 14.6538 9.46454C14.6788 9.33521 14.6648 9.20141 14.6138 9.08V9.08Z" fill="white"/>
</svg>
